<svg width="14" height="13" viewBox="0 0 14 13" xmlns="http://www.w3.org/2000/svg">
<path d="M13.2127 11.7129L9.15493 7.65508C9.78462 6.84102 10.1252 5.8457 10.1252 4.79883C10.1252 3.5457 9.63618 2.3707 8.75181 1.48477C7.86743 0.598828 6.68931 0.111328 5.43774 0.111328C4.18618 0.111328 3.00806 0.600391 2.12368 1.48477C1.23774 2.36914 0.750244 3.5457 0.750244 4.79883C0.750244 6.05039 1.23931 7.22852 2.12368 8.11289C3.00806 8.99883 4.18462 9.48633 5.43774 9.48633C6.48462 9.48633 7.47837 9.1457 8.29243 8.51758L12.3502 12.5738C12.3621 12.5857 12.3763 12.5952 12.3918 12.6016C12.4074 12.6081 12.424 12.6114 12.4409 12.6114C12.4577 12.6114 12.4744 12.6081 12.4899 12.6016C12.5055 12.5952 12.5196 12.5857 12.5315 12.5738L13.2127 11.8941C13.2246 11.8822 13.2341 11.8681 13.2405 11.8526C13.247 11.837 13.2503 11.8203 13.2503 11.8035C13.2503 11.7867 13.247 11.77 13.2405 11.7545C13.2341 11.7389 13.2246 11.7248 13.2127 11.7129ZM7.91274 7.27383C7.25024 7.93477 6.37212 8.29883 5.43774 8.29883C4.50337 8.29883 3.62524 7.93477 2.96274 7.27383C2.30181 6.61133 1.93774 5.7332 1.93774 4.79883C1.93774 3.86445 2.30181 2.98477 2.96274 2.32383C3.62524 1.66289 4.50337 1.29883 5.43774 1.29883C6.37212 1.29883 7.25181 1.66133 7.91274 2.32383C8.57368 2.98633 8.93774 3.86445 8.93774 4.79883C8.93774 5.7332 8.57368 6.61289 7.91274 7.27383Z" fill="white"/>
</svg>
