<svg width="14" height="14" viewBox="0 0 14 14" fill="none" xmlns="http://www.w3.org/2000/svg">
<path d="M13.5 1H0.5C0.223437 1 0 1.22344 0 1.5V11.5C0 11.7766 0.223437 12 0.5 12H13.5C13.7766 12 14 11.7766 14 11.5V1.5C14 1.22344 13.7766 1 13.5 1ZM12.875 2.73125V10.875H1.125V2.73125L0.69375 2.39531L1.30781 1.60625L1.97656 2.12656H12.025L12.6938 1.60625L13.3078 2.39531L12.875 2.73125ZM12.025 2.125L7 6.03125L1.975 2.125L1.30625 1.60469L0.692188 2.39375L1.12344 2.72969L6.46094 6.87969C6.61444 6.99894 6.80328 7.06367 6.99766 7.06367C7.19203 7.06367 7.38088 6.99894 7.53438 6.87969L12.875 2.73125L13.3062 2.39531L12.6922 1.60625L12.025 2.125Z" fill="black" fill-opacity="0.85"/>
</svg>
