<svg width="14" height="14" viewBox="0 0 14 14" fill="none" xmlns="http://www.w3.org/2000/svg">
<g clip-path="url(#clip0_179493_5863)">
<path d="M13.45 8.77886L12.4265 7.90386C12.475 7.60699 12.5 7.30386 12.5 7.00074C12.5 6.69761 12.475 6.39449 12.4265 6.09761L13.45 5.22261C13.5272 5.15653 13.5824 5.06851 13.6084 4.97026C13.6343 4.87202 13.6297 4.7682 13.5953 4.67261L13.5812 4.63199C13.2995 3.84453 12.8776 3.11454 12.3359 2.4773L12.3078 2.44449C12.2421 2.36722 12.1545 2.31168 12.0566 2.28519C11.9587 2.25869 11.855 2.26247 11.7593 2.29605L10.489 2.74761C10.0203 2.36324 9.49683 2.06011 8.9312 1.84761L8.68589 0.519485C8.66739 0.419551 8.61891 0.327614 8.5469 0.255888C8.4749 0.184162 8.38277 0.136043 8.28277 0.117923L8.24058 0.11011C7.42652 -0.0367645 6.57027 -0.0367645 5.7562 0.11011L5.71402 0.117923C5.61401 0.136043 5.52189 0.184162 5.44988 0.255888C5.37788 0.327614 5.3294 0.419551 5.31089 0.519485L5.06402 1.85386C4.50291 2.06641 3.98037 2.36937 3.51714 2.75074L2.23745 2.29605C2.14178 2.26221 2.03807 2.25828 1.9401 2.2848C1.84214 2.31131 1.75457 2.36701 1.68902 2.44449L1.66089 2.4773C1.11987 3.11499 0.698042 3.84486 0.415579 4.63199L0.401517 4.67261C0.331204 4.86792 0.389017 5.08667 0.546829 5.22261L1.58277 6.10699C1.53433 6.40074 1.51089 6.70074 1.51089 6.99917C1.51089 7.29917 1.53433 7.59917 1.58277 7.89136L0.546829 8.77574C0.469635 8.84182 0.414386 8.92984 0.388429 9.02808C0.362472 9.12633 0.367037 9.23015 0.401517 9.32574L0.415579 9.36636C0.698392 10.1539 1.11714 10.8804 1.66089 11.521L1.68902 11.5539C1.75473 11.6311 1.8423 11.6867 1.94021 11.7132C2.03811 11.7397 2.14175 11.7359 2.23745 11.7023L3.51714 11.2476C3.98277 11.6304 4.50308 11.9335 5.06402 12.1445L5.31089 13.4789C5.3294 13.5788 5.37788 13.6707 5.44988 13.7425C5.52189 13.8142 5.61401 13.8623 5.71402 13.8804L5.7562 13.8882C6.57775 14.0359 7.41904 14.0359 8.24058 13.8882L8.28277 13.8804C8.38277 13.8623 8.4749 13.8142 8.5469 13.7425C8.61891 13.6707 8.66739 13.5788 8.68589 13.4789L8.9312 12.1507C9.4966 11.9388 10.023 11.6347 10.489 11.2507L11.7593 11.7023C11.855 11.7361 11.9587 11.7401 12.0567 11.7135C12.1546 11.687 12.2422 11.6313 12.3078 11.5539L12.3359 11.521C12.8796 10.8789 13.2984 10.1539 13.5812 9.36636L13.5953 9.32574C13.6656 9.13355 13.6078 8.9148 13.45 8.77886ZM11.3171 6.28199C11.3562 6.51792 11.3765 6.76011 11.3765 7.0023C11.3765 7.24449 11.3562 7.48667 11.3171 7.72261L11.214 8.34917L12.3812 9.34761C12.2043 9.75525 11.9809 10.1411 11.7156 10.4976L10.2656 9.98355L9.77495 10.3867C9.40152 10.6929 8.98589 10.9335 8.53589 11.1023L7.94058 11.3257L7.66089 12.8414C7.2196 12.8914 6.77406 12.8914 6.33277 12.8414L6.05308 11.3226L5.46245 11.096C5.01714 10.9273 4.60308 10.6867 4.23277 10.382L3.74214 9.9773L2.28277 10.496C2.01714 10.1382 1.79527 9.7523 1.61714 9.34605L2.79683 8.33824L2.69527 7.71324C2.65777 7.48042 2.63745 7.2398 2.63745 7.0023C2.63745 6.76324 2.6562 6.52417 2.69527 6.29136L2.79683 5.66636L1.61714 4.65855C1.7937 4.25074 2.01714 3.86636 2.28277 3.50855L3.74214 4.0273L4.23277 3.62261C4.60308 3.31792 5.01714 3.0773 5.46245 2.90855L6.05464 2.68511L6.33433 1.16636C6.77339 1.11636 7.22183 1.11636 7.66246 1.16636L7.94214 2.68199L8.53746 2.90542C8.98589 3.07417 9.40308 3.3148 9.77652 3.62105L10.2671 4.02417L11.7171 3.51011C11.9828 3.86792 12.2046 4.25386 12.3828 4.66011L11.2156 5.65855L11.3171 6.28199ZM6.99996 4.09605C5.4812 4.09605 4.24995 5.3273 4.24995 6.84605C4.24995 8.3648 5.4812 9.59605 6.99996 9.59605C8.51871 9.59605 9.74996 8.3648 9.74996 6.84605C9.74996 5.3273 8.51871 4.09605 6.99996 4.09605ZM8.23746 8.08355C8.07515 8.24633 7.88225 8.3754 7.66988 8.46336C7.4575 8.55131 7.22983 8.59641 6.99996 8.59605C6.53277 8.59605 6.0937 8.41324 5.76245 8.08355C5.59968 7.92124 5.4706 7.72835 5.38265 7.51597C5.29469 7.30359 5.2496 7.07592 5.24995 6.84605C5.24995 6.37886 5.43277 5.9398 5.76245 5.60855C6.0937 5.2773 6.53277 5.09605 6.99996 5.09605C7.46714 5.09605 7.90621 5.2773 8.23746 5.60855C8.40023 5.77086 8.52931 5.96375 8.61726 6.17613C8.70522 6.38851 8.75031 6.61618 8.74996 6.84605C8.74996 7.31324 8.56714 7.7523 8.23746 8.08355Z" fill="black" fill-opacity="0.85"/>
</g>
<defs>
<clipPath id="clip0_179493_5863">
<rect width="14" height="14" fill="white"/>
</clipPath>
</defs>
</svg>
