<svg width="15" height="15" viewBox="0 0 15 15" fill="none" xmlns="http://www.w3.org/2000/svg">
<path d="M10.6919 4.40406C10.9888 4.10875 10.9888 3.6275 10.6919 3.33218L9.59974 2.24L9.60131 2.24156C9.31224 1.9525 8.81537 1.45562 8.11224 0.754058C7.78099 0.43062 7.24506 0.433745 6.91693 0.76187L0.763806 6.91031C0.685081 6.9885 0.622602 7.08149 0.579966 7.18393C0.537331 7.28637 0.515381 7.39623 0.515381 7.50718C0.515381 7.61814 0.537331 7.728 0.579966 7.83044C0.622602 7.93288 0.685081 8.02587 0.763806 8.10406L6.91537 14.2509C7.07397 14.4093 7.28892 14.4982 7.51302 14.4982C7.73713 14.4982 7.95208 14.4093 8.11068 14.2509L10.6904 11.6728C10.9872 11.3775 10.9872 10.8962 10.6904 10.6009C10.5478 10.4591 10.3548 10.3794 10.1537 10.3794C9.9525 10.3794 9.75952 10.4591 9.61693 10.6009L7.66381 12.5572C7.58256 12.6384 7.45599 12.6384 7.37474 12.5572L2.46068 7.64781C2.37943 7.56656 2.37943 7.44 2.46068 7.35875L7.37318 2.44937C7.37943 2.44312 7.38724 2.43843 7.39349 2.43218C7.47474 2.36812 7.58724 2.37437 7.66224 2.44937L9.61849 4.40406C9.91537 4.70093 10.3966 4.70093 10.6919 4.40406ZM5.88412 7.53843C5.88412 7.97853 6.05911 8.4006 6.3706 8.71179C6.68208 9.02298 7.10455 9.19781 7.54506 9.19781C7.98556 9.19781 8.40803 9.02298 8.71952 8.71179C9.031 8.4006 9.20599 7.97853 9.20599 7.53843C9.20599 7.09834 9.031 6.67627 8.71952 6.36508C8.40803 6.05388 7.98556 5.87906 7.54506 5.87906C7.10455 5.87906 6.68208 6.05388 6.3706 6.36508C6.05911 6.67627 5.88412 7.09834 5.88412 7.53843ZM14.2622 6.93531L12.3419 5.02437C12.0451 4.72906 11.5638 4.72906 11.2685 5.02593C11.1979 5.0962 11.1419 5.17972 11.1037 5.27169C11.0655 5.36366 11.0458 5.46228 11.0458 5.56187C11.0458 5.66147 11.0655 5.76008 11.1037 5.85205C11.1419 5.94402 11.1979 6.02754 11.2685 6.09781L12.5654 7.39312C12.6466 7.47437 12.6466 7.60093 12.5654 7.68218L11.2872 8.95875C11.2167 9.02901 11.1607 9.11253 11.1224 9.2045C11.0842 9.29647 11.0646 9.39509 11.0646 9.49468C11.0646 9.59428 11.0842 9.69289 11.1224 9.78486C11.1607 9.87684 11.2167 9.96035 11.2872 10.0306C11.4298 10.1725 11.6228 10.2522 11.824 10.2522C12.0251 10.2522 12.2181 10.1725 12.3607 10.0306L14.2638 8.12906C14.3423 8.05067 14.4045 7.95757 14.4469 7.85509C14.4893 7.7526 14.511 7.64276 14.5109 7.53186C14.5107 7.42096 14.4887 7.31117 14.446 7.2088C14.4034 7.10643 14.3409 7.01349 14.2622 6.93531Z" fill="#1890FF"/>
</svg>
