<svg id="SvgjsSvg1001" width="288" height="288" xmlns="http://www.w3.org/2000/svg" version="1.1" xmlns:xlink="http://www.w3.org/1999/xlink" xmlns:svgjs="http://svgjs.com/svgjs"><defs id="SvgjsDefs1002"></defs><g id="SvgjsG1008"><svg xmlns="http://www.w3.org/2000/svg" viewBox="0 0 512 512" width="288" height="288"><path fill="#4ab417" fill-rule="evenodd" d="M213.333333,3.55271368e-14 C95.51296,3.55271368e-14 3.55271368e-14,95.51296 3.55271368e-14,213.333333 C3.55271368e-14,331.153707 95.51296,426.666667 213.333333,426.666667 C331.153707,426.666667 426.666667,331.153707 426.666667,213.333333 C426.666667,95.51296 331.153707,3.55271368e-14 213.333333,3.55271368e-14 Z M213.333333,384 C119.227947,384 42.6666667,307.43872 42.6666667,213.333333 C42.6666667,119.227947 119.227947,42.6666667 213.333333,42.6666667 C307.43872,42.6666667 384,119.227947 384,213.333333 C384,307.43872 307.438933,384 213.333333,384 Z M293.669333,137.114453 L323.835947,167.281067 L192,299.66912 L112.916693,220.585813 L143.083307,190.4192 L192,239.335893 L293.669333,137.114453 Z" transform="translate(42.667 42.667)" class="color000 svgShape"></path></svg></g></svg>